<?xml version="1.0" encoding="UTF-8" standalone="no"?>
<svg
   id="visual"

   viewBox="0 0 286.85507 499.22116"
   width="286.85507"
   height="499.22116"
   preserveAspectRatio="xMinYMid meet"
   version="1.1"
   xml:space="preserve"
   xmlns="http://www.w3.org/2000/svg"
   xmlns:svg="http://www.w3.org/2000/svg"><defs
     id="defs49" /><path
     d="m 283.4863,0 c 9.87617,0 -3.46361,31.74519 -20.57718,29.555 -29.77085,-3.81006 -27.53917,25.12387 -46.33917,50.82387 -18.8,25.7 -60.01361,47.92113 -49.01361,73.62113 11,25.7 16.4,51.3 27.7,77.2 11.3,25.8 28.7,51.8 17,77.6 -11.7,25.9 -52.3,51.5 -60,77.2 -7.7,25.7 17.7,3.61329 14.2,29.31329 -3.5,25.7 -32.40943,44.84506 -52,64.2 -4.89579,4.83691 -9.77627,10.33016 -16.199999,12.8 -30.55599,11.7484 -76.725835,-7.3668 -95.8988278,6.70636 -3.439551,2.52467 -2.10117193,-19.50636 -2.10117193,-19.50636 v -64.2 V 386 308.8 231.2 154 77 12.8 0 Z"
     fill="#2e6cb5"
     stroke-linecap="round"
     stroke-linejoin="miter"
     id="path44" /></svg>
