<?xml version="1.0" encoding="UTF-8" standalone="no"?>
<!-- Created with Inkscape (http://www.inkscape.org/) -->

<svg
  version="1.1"
  id="svg2"
  width="235.26611"
  height="236.99998"
  viewBox="0 0 235.26611 236.99998"
  sodipodi:docname="ffmpeg.svg"
  inkscape:export-filename="spring.svg"
  inkscape:export-xdpi="96"
  inkscape:export-ydpi="96"
  xml:space="preserve"
  xmlns:inkscape="http://www.inkscape.org/namespaces/inkscape"
  xmlns:sodipodi="http://sodipodi.sourceforge.net/DTD/sodipodi-0.dtd"
  xmlns="http://www.w3.org/2000/svg"
  xmlns:svg="http://www.w3.org/2000/svg"><defs
     id="defs6" />
  <sodipodi:namedview
    id="namedview4"
    pagecolor="#ffffff"
    bordercolor="#000000"
    borderopacity="0.25"
    inkscape:showpageshadow="2"
    inkscape:pageopacity="0.0"
    inkscape:pagecheckerboard="0"
    inkscape:deskcolor="#d1d1d1"
    showgrid="false"/>
  <g
    inkscape:groupmode="layer"
    inkscape:label="Image"
    id="g8"><g
       id="g266"
       transform="matrix(1.312156,0,0,1.318554,-37.554234,-40.381393)"><g
         id="g254"
         transform="matrix(0.96292892,0,0,0.89871171,-2.0971817,3.6641619)">
	<polygon
    class="st0"
    points="218.1,63.2 125,30 31.9,63.2 46.1,186.3 125,230 203.9,186.3 "
    id="polygon248"/>
	<polygon
    class="st1"
    points="125,30 125,52.2 125,52.1 125,153.4 125,230 203.9,186.3 218.1,63.2 "
    id="polygon250"/>
	<path
    class="st2"
    d="M 125,52.1 66.8,182.6 v 0 h 21.7 v 0 l 11.7,-29.2 h 49.4 l 11.7,29.2 v 0 H 183 v 0 z m 17,83.3 h -34 l 17,-40.9 z"
    id="path252"/>
</g></g></g>
  <style
    type="text/css"
    id="style246">
	.st0 {
    fill: #DD0031;
    cursor: pointer;
  }

  .st1 {
    fill: #C3002F;
    cursor: pointer;
  }

  .st2 {
    fill: #FFFFFF;
  cursor: pointer;
  }

</style></svg>
