<?xml version="1.0" encoding="UTF-8" standalone="no"?>
<!-- Created with Inkscape (http://www.inkscape.org/) -->

<svg
   version="1.1"
   id="svg2"
   width="150.98282"
   height="151.34966"
   viewBox="0 0 150.98282 151.34966"
   sodipodi:docname="coqui.png"
   xmlns:inkscape="http://www.inkscape.org/namespaces/inkscape"
   xmlns:sodipodi="http://sodipodi.sourceforge.net/DTD/sodipodi-0.dtd"
   xmlns="http://www.w3.org/2000/svg"
   xmlns:svg="http://www.w3.org/2000/svg">
  <defs
     id="defs6" />
  <sodipodi:namedview
     id="namedview4"
     pagecolor="#ffffff"
     bordercolor="#000000"
     borderopacity="0.25"
     inkscape:showpageshadow="2"
     inkscape:pageopacity="0.0"
     inkscape:pagecheckerboard="0"
     inkscape:deskcolor="#d1d1d1"
     showgrid="false" />
  <g
     inkscape:groupmode="layer"
     inkscape:label="Image"
     id="g8"
     transform="translate(-6,-9.2023859)">
    <path
       style="fill:#5eae91"
       d="m 84.5,160.47072 c -5.182261,0.2536 -11.757256,-0.10237 -15.5,-0.83918 -3.575,-0.70379 -9.173124,-2.07126 -12.440276,-3.03883 -3.267151,-0.96756 -8.943565,-3.27164 -12.614252,-5.12017 -3.670687,-1.84853 -9.547563,-5.66587 -13.059724,-8.48297 -3.512161,-2.81711 -8.314964,-7.45472 -10.672894,-10.30579 C 17.854923,129.8327 14.595051,124.8 12.968694,121.5 11.342336,118.2 9.1090518,111.94052 8.0058399,107.59004 6.9026279,103.23956 6,97.981477 6,95.905414 6,93.82935 6.6508661,89.036642 7.4463691,85.254952 c 0.7955031,-3.78169 2.6732509,-9.70475 4.1727719,-13.162357 2.63673,-6.079788 2.66959,-6.373818 0.99908,-8.939576 C 11.668193,61.693858 10.198824,58.952338 9.3529557,57.060752 8.5070879,55.169166 7.3172613,51.248452 6.7088967,48.348056 5.8516582,44.261145 5.9028628,41.884952 6.9364705,37.787304 7.6700007,34.879287 9.2895507,30.475 10.535471,28 11.78139,25.525 14.533104,21.767675 16.65039,19.65039 18.767675,17.533104 22.525,14.78222 25,13.537313 c 2.475,-1.244906 6.878432,-2.823787 9.785405,-3.508624 2.940667,-0.6927744 7.185365,-0.9602413 9.568208,-0.6029119 2.355542,0.3532352 7.031259,1.9420599 10.390482,3.5307219 3.359224,1.588661 7.891083,4.72615 10.070797,6.972197 2.179715,2.246048 4.655542,5.543429 5.501837,7.327513 1.53872,3.243791 1.53872,3.243791 11.287049,3.092011 9.748329,-0.151781 9.748329,-0.151781 13.322275,-5.465929 1.965671,-2.922782 5.516357,-6.788114 7.890417,-8.589627 2.37406,-1.801514 7.47589,-4.235121 11.3374,-5.408017 4.81615,-1.4628631 8.36266,-1.948631 11.29363,-1.5468971 2.35,0.3221026 6.76436,1.5178841 9.8097,2.6572921 3.04535,1.139409 7.52859,3.824727 9.96276,5.967375 2.43418,2.142648 5.85763,6.582157 7.60768,9.865576 2.03403,3.81624 3.4033,8.088095 3.79562,11.841663 0.33925,3.24579 0.0934,8.378243 -0.54974,11.476219 -0.63991,3.082424 -2.47265,7.668757 -4.07275,10.191852 -2.90927,4.587446 -2.90927,4.587446 -0.0474,10.899073 1.57401,3.471396 3.35342,8.970879 3.95425,12.221074 0.60083,3.250195 1.08461,8.189298 1.07506,10.975785 -0.01,2.786488 -0.67582,8.216341 -1.48059,12.066341 -0.80478,3.85 -3.11113,10.26745 -5.12523,14.26099 -2.01411,3.99355 -6.31882,10.16044 -9.56604,13.7042 -3.24722,3.54377 -8.92055,8.44649 -12.60741,10.89493 -3.68685,2.44845 -9.40337,5.64866 -12.70337,7.11158 -3.3,1.46293 -9.6,3.53707 -14,4.60922 -4.4,1.07214 -12.05,2.14755 -17,2.3898 z m -3,-6.55969 c 7.754987,0.0411 13.36001,-0.52441 19,-1.91691 4.4,-1.08634 11.74556,-3.85288 16.32347,-6.14786 5.44597,-2.73016 10.80445,-6.49226 15.5,-10.88228 3.95382,-3.69656 8.86051,-9.56312 10.92653,-13.06403 2.0625,-3.49494 3.75,-6.86295 3.75,-7.48445 0,-0.6215 -4.221,0.98697 -9.38001,3.57437 -5.159,2.5874 -13.1465,5.64515 -17.75,6.795 -4.60349,1.14984 -12.41999,2.62763 -17.36999,3.28397 -5.792085,0.76799 -15.415831,0.98702 -27,0.61451 -10.725414,-0.34491 -20.98887,-1.2351 -25.395563,-2.20268 -4.06756,-0.89311 -11.106172,-2.96649 -15.641359,-4.60752 -4.535188,-1.64102 -10.371644,-4.33185 -12.969902,-5.97961 -2.598258,-1.64777 -4.870528,-2.84952 -5.049489,-2.67056 -0.17896,0.17896 0.487009,2.1145 1.479931,4.3012 0.992922,2.1867 3.844498,6.726 6.336834,10.08734 2.492337,3.36133 7.26434,8.21437 10.604451,10.78453 3.340112,2.57015 9.525728,6.31273 13.745813,8.31684 4.220086,2.00411 10.871574,4.43045 14.781084,5.39186 4.461634,1.09719 11.203783,1.76971 18.1082,1.80628 z m 4,-31.40106 c 14.408598,-0.27354 21.05405,-0.83979 27.5,-2.34322 4.675,-1.09038 11.63831,-3.16674 15.47402,-4.61413 3.83571,-1.4474 9.19008,-4.05368 11.89861,-5.79174 2.70853,-1.73805 6.20772,-5.18338 7.77598,-7.65627 1.77308,-2.795849 2.8458,-5.840275 2.83661,-8.050391 -0.008,-1.95482 -0.68311,-6.38903 -1.49996,-9.8538 -0.81685,-3.464769 -2.21743,-7.739769 -3.1124,-9.5 -0.89497,-1.76023 -1.73142,-3.324353 -1.85878,-3.475827 -0.12736,-0.151474 -2.43263,0.860464 -5.12282,2.248751 -2.69019,1.388287 -7.47876,2.997527 -10.64126,3.576089 -3.92569,0.718184 -7.47813,0.732469 -11.19686,0.04503 -2.99577,-0.553799 -7.62633,-2.111333 -10.29014,-3.461187 -2.66381,-1.349854 -6.75956,-4.533188 -9.101673,-7.074077 C 95.819219,64.01831 92.966195,59.815538 91.821276,57.219703 90.561231,54.362844 89.542932,49.441109 89.241317,44.75 88.743029,37 88.743029,37 81.510888,37 c -7.232141,0 -7.232141,0 -7.282629,6.75 -0.03251,4.345818 -0.81186,8.776017 -2.188123,12.43826 -1.309401,3.484325 -3.95915,7.605619 -6.838885,10.636878 -2.585688,2.72174 -6.632602,5.918285 -8.993143,7.103435 -2.36054,1.18515 -6.739834,2.607345 -9.731764,3.160433 -3.795847,0.7017 -7.334245,0.666772 -11.708108,-0.115573 -3.44753,-0.616653 -8.281327,-2.237485 -10.741771,-3.60185 -4.249719,-2.356552 -4.539032,-2.391091 -5.782642,-0.690353 -0.720008,0.98467 -2.194418,4.656614 -3.276465,8.159875 C 13.885311,84.344366 13,89.660616 13,92.654995 c 0,2.994379 0.652013,6.705178 1.448917,8.246225 0.796904,1.54104 3.136033,4.2832 5.198063,6.09369 2.06203,1.81048 6.922518,4.79704 10.801083,6.63679 3.878565,1.83975 10.73126,4.27389 15.228211,5.40919 4.49695,1.13529 11.02195,2.46144 14.5,2.94698 3.478049,0.48554 14.873726,0.72049 25.323726,0.5221 z M 40.5,71 c 5.641274,0 8.178682,-0.533886 12.301285,-2.588266 2.856686,-1.423547 6.754907,-4.411866 8.662714,-6.640709 1.907807,-2.228843 4.208681,-6.280197 5.113054,-9.00301 1.08261,-3.259434 1.502201,-7.054411 1.228296,-11.109291 C 67.576539,38.271426 66.529154,33.714923 65.477828,31.533162 64.426501,29.351402 61.961479,25.961479 60,24 c -1.961479,-1.961479 -5.351402,-4.422971 -7.533162,-5.469983 -2.181761,-1.047013 -6.566817,-2.099578 -9.744569,-2.339035 -3.177752,-0.239457 -7.677752,0.09709 -10,0.747893 -2.322248,0.650798 -6.308091,2.697656 -8.85743,4.548574 -3.268281,2.372898 -5.553707,5.203479 -7.75,9.59865 C 13.718958,35.880683 13,38.63846 13,43.033996 c 0,3.143003 0.680934,7.644523 1.513186,10.003378 0.832253,2.358854 3.077426,6.197774 4.989274,8.530934 1.911849,2.333159 5.81927,5.409764 8.683159,6.8369 C 32.32199,70.466449 34.854122,71 40.5,71 Z M 44,66.956076 c -2.475,0 -6.318617,-0.826083 -8.54137,-1.83574 -2.222754,-1.009656 -5.221583,-3.238342 -6.664064,-4.952634 -1.442482,-1.714291 -3.163577,-4.755787 -3.824657,-6.758879 -0.66108,-2.003092 -0.987767,-5.871167 -0.725972,-8.595722 0.315771,-3.286296 1.448785,-6.335125 3.366027,-9.05765 1.606742,-2.281608 4.88822,-5.124141 7.390036,-6.401512 2.721912,-1.389748 6.278088,-2.2976 9,-2.2976 2.721912,0 6.278088,0.907852 9,2.2976 2.501816,1.277371 5.783294,4.119904 7.390036,6.401512 1.917242,2.722525 3.050256,5.771354 3.366027,9.05765 0.261795,2.724555 -0.06489,6.59263 -0.725972,8.595722 -0.66108,2.003092 -2.382175,5.044588 -3.824657,6.758879 -1.442481,1.714292 -4.44131,3.942978 -6.664064,4.952634 C 50.318617,66.129993 46.475,66.956076 44,66.956076 Z m 78.7609,3.997363 c 5.34506,0.03427 8.42944,-0.502721 11.68962,-2.035185 2.4358,-1.14496 6.44696,-4.239407 8.9137,-6.876548 3.00448,-3.21203 5.00502,-6.545977 6.06038,-10.099756 0.86647,-2.917724 1.5754,-6.746601 1.5754,-8.508617 0,-1.762015 -0.75066,-5.527933 -1.66812,-8.368706 -0.92303,-2.857978 -3.47435,-7.217026 -5.7119,-9.759013 -2.22925,-2.532566 -6.30447,-5.64669 -9.08188,-6.940023 -3.67437,-1.711014 -6.79755,-2.342753 -11.5381,-2.33386 -4.16241,0.0078 -7.96203,0.676244 -10.56538,1.85868 -2.23595,1.015568 -5.75235,3.327676 -7.81422,5.138018 -2.06186,1.810342 -4.929253,5.58204 -6.371975,8.381551 -2.102577,4.079916 -2.620529,6.479155 -2.610016,12.09002 0.0078,4.141058 0.657222,8.486472 1.590183,10.639564 0.867388,2.00176 3.278198,5.522515 5.357368,7.823901 2.07916,2.301386 5.83539,5.25513 8.34717,6.563875 3.54611,1.847675 6.18979,2.389944 11.82777,2.426099 z m -2.97878,-3.975401 C 117.42695,66.965959 113.7,66.122703 111.5,65.104137 c -2.2,-1.018567 -5.20887,-3.146184 -6.68638,-4.728038 -1.47751,-1.581855 -3.16501,-4.142894 -3.75,-5.691199 C 100.47863,53.136596 100,49.631168 100,46.895062 c 0,-2.92328 0.78462,-6.504717 1.90268,-8.6849 1.04648,-2.040589 2.96512,-4.701184 4.26365,-5.912434 1.29853,-1.21125 4.02787,-2.89875 6.0652,-3.75 C 114.26886,27.696478 117.53967,27 119.5,27 c 1.96033,0 5.23728,0.698872 7.28212,1.553048 2.04483,0.854176 4.99555,2.766676 6.55716,4.25 1.5616,1.483324 3.54678,4.046952 4.4115,5.696952 0.87543,1.670421 1.57223,5.437562 1.57223,8.5 0,3.04539 -0.70008,6.848154 -1.56865,8.520785 -0.86276,1.661431 -2.84794,4.311931 -4.41151,5.89 -1.56357,1.578068 -4.2909,3.481215 -6.06073,4.229215 -1.76984,0.748 -5.14484,1.350117 -7.5,1.338038 z"
       id="path847" />
  </g>
</svg>
