<?xml version="1.0" encoding="UTF-8" standalone="no"?>
<!-- Created with Inkscape (http://www.inkscape.org/) -->

<svg
   version="1.1"
   id="svg2"
   width="235.26611"
   height="236.99998"
   viewBox="0 0 235.26611 236.99998"
   sodipodi:docname="pexels.png"
   inkscape:export-filename="pexels.svg"
   inkscape:export-xdpi="96"
   inkscape:export-ydpi="96"
   xml:space="preserve"
   xmlns:inkscape="http://www.inkscape.org/namespaces/inkscape"
   xmlns:sodipodi="http://sodipodi.sourceforge.net/DTD/sodipodi-0.dtd"
   xmlns="http://www.w3.org/2000/svg"
   xmlns:svg="http://www.w3.org/2000/svg"><defs
     id="defs6" /><sodipodi:namedview
     id="namedview4"
     pagecolor="#ffffff"
     bordercolor="#000000"
     borderopacity="0.25"
     inkscape:showpageshadow="2"
     inkscape:pageopacity="0.0"
     inkscape:pagecheckerboard="0"
     inkscape:deskcolor="#d1d1d1"
     showgrid="false" /><g
     inkscape:groupmode="layer"
     inkscape:label="Image"
     id="g8"><g
       id="g266"
       transform="matrix(1.312156,0,0,1.318554,-37.554234,-40.381393)"><path
         style="cursor:pointer;display:inline;fill:#388e3c;fill-opacity:1"
         d="m 38.244479,209.46933 c -6.322821,-1.89477 -10.257033,-8.34242 -8.605057,-14.10252 0.734285,-2.5603 17.315986,-19.71862 69.211332,-71.61811 68.245706,-68.251164 68.245706,-68.251164 57.744616,-68.251164 -10.50109,0 -10.50109,0 -59.497268,49.015664 -36.478793,36.4933 -49.831375,49.24789 -52.265362,49.92469 -6.490279,1.80469 -13.37631,-2.20484 -15.226755,-8.86609 -1.374858,-4.94923 -1.285856,-55.508525 0.106632,-60.574264 0.851309,-3.096983 3.9156,-6.850657 13.573571,-16.627259 C 55.760224,55.743018 55.760224,55.743018 46.431077,55.323513 35.979171,54.853521 32.627474,53.387635 30.552859,48.379072 27.998116,42.211376 29.773667,36.39679 35.321877,32.761463 c 2.395724,-1.569738 5.523651,-1.763927 28.412742,-1.763927 24.410286,0 25.864486,0.10518 28.54398,2.064534 1.552831,1.135494 3.601416,3.625716 4.552411,5.533827 3.19775,6.416089 1.926678,8.283203 -21.711706,31.892917 -21.517375,21.491278 -21.517375,21.491278 -21.517375,31.983376 0,10.4921 0,10.4921 40.25,-29.662379 35.619301,-35.534765 40.746711,-40.285119 44.567401,-41.290067 2.88029,-0.757595 13.75798,-1.033508 32.67893,-0.828902 26.81786,0.290001 28.51506,0.419062 31.18259,2.371228 4.34206,3.177623 6.51202,8.282899 5.30679,12.485287 -0.76481,2.666754 -16.44989,18.910161 -69.23453,71.699023 -68.245706,68.25116 -68.245706,68.25116 -57.744617,68.25116 10.501089,0 10.501089,0 59.497267,-49.01566 37.07326,-37.088007 49.80912,-49.241678 52.33693,-49.944456 4.78208,-1.329507 10.04561,0.656884 12.87268,4.857995 2.25749,3.35469 2.28656,3.784555 2.28656,33.815741 0,20.27754 -0.36943,31.14602 -1.10818,32.60212 -0.6095,1.20134 -6.73476,7.86589 -13.61169,14.8101 -12.5035,12.62583 -12.5035,12.62583 -3.03699,13.03986 6.72351,0.29407 10.22894,0.9136 12.09776,2.1381 7.87108,5.15733 7.84101,15.25478 -0.0609,20.43227 -2.39572,1.56974 -5.52365,1.76393 -28.41274,1.76393 -24.41029,0 -25.86449,-0.10518 -28.54398,-2.06453 -1.55283,-1.1355 -3.60142,-3.62572 -4.55241,-5.53383 -3.19775,-6.41609 -1.92668,-8.2832 21.7117,-31.89292 21.51743,-21.49128 21.51743,-21.49128 21.51743,-31.99537 0,-10.50409 0,-10.50409 -40.3191,29.80579 -34.88072,34.87275 -40.84931,40.43285 -44.250001,41.22151 -4.942609,1.14627 -56.930038,1.08738 -60.78835,-0.0689 z"
         id="path268" /></g></g></svg>
