<?xml version="1.0" encoding="UTF-8" standalone="no"?>
<svg
   id="svg2"
   width="234.41304"
   height="234.64917"
   viewBox="0 0 234.41304 234.64917"
   xmlns="http://www.w3.org/2000/svg"
   xmlns:svg="http://www.w3.org/2000/svg">
  <defs
     id="defs6" />
  <g
     id="g8"
     transform="translate(-1.0869616,-1.0869616)">
    <path
       style="cursor:pointer;fill:#07a081"
       d="M 22.950561,234.65073 C 14.353814,232.30815 8.3523991,227.30886 3.7022019,218.61647 L 1.5,214.5 1.2251021,120.53326 C 0.90818481,12.20326 0.32685079,19.571911 9.9493809,9.9493809 19.571911,0.32685079 12.20326,0.90818481 120.53326,1.2251021 L 214.5,1.5 l 4.2222,2.2561394 c 6.62199,3.5384752 10.96276,7.9023806 13.98771,14.0622576 L 235.5,23.5 v 95 95 l -2.31252,4.69487 c -2.97529,6.04043 -9.47282,12.54719 -15.18748,15.20905 -4.45729,2.07618 -5.38273,2.09793 -97.5,2.29129 -71.384991,0.14985 -94.057378,-0.0929 -97.549439,-1.04448 z m 118.823279,-71.82651 0.27385,-16.67578 3.22615,-0.68764 c 9.71147,-2.06996 22.86617,-11.83911 28.07629,-20.85044 10.13472,-17.52885 7.41358,-39.392357 -6.66412,-53.544046 -2.84257,-2.857514 -7.45275,-6.5025 -10.24483,-8.09997 C 147.1293,57.638629 141.90355,57.031075 105.25,57.014781 L 72,57 v 61.51296 61.51296 L 106.75,179.76296 141.5,179.5 Z M 90,118.43946 V 74.878925 l 26.25,0.310537 c 24.6857,0.292032 26.48837,0.439399 30.25,2.472909 16.5705,8.957893 19.9997,29.628339 7.16272,43.175259 -5.35794,5.65426 -10.03505,7.47966 -20.41272,7.96676 L 124,129.23856 V 145.61928 162 H 107 90 Z"
       id="path116" />
  </g>
</svg>
