<?xml version="1.0" encoding="UTF-8" standalone="no"?>
<!-- Created with Inkscape (http://www.inkscape.org/) -->

<svg
   version="1.1"
   id="svg2"
   width="235.2661"
   height="236.99998"
   viewBox="0 0 235.26609 236.99998"
   sodipodi:docname="ffmpeg.svg"
   inkscape:export-filename="pexels.svg"
   inkscape:export-xdpi="96"
   inkscape:export-ydpi="96"
   xml:space="preserve"
   xmlns:inkscape="http://www.inkscape.org/namespaces/inkscape"
   xmlns:sodipodi="http://sodipodi.sourceforge.net/DTD/sodipodi-0.dtd"
   xmlns="http://www.w3.org/2000/svg"
   xmlns:svg="http://www.w3.org/2000/svg"><defs
     id="defs6" /><sodipodi:namedview
     id="namedview4"
     pagecolor="#ffffff"
     bordercolor="#000000"
     borderopacity="0.25"
     inkscape:showpageshadow="2"
     inkscape:pageopacity="0.0"
     inkscape:pagecheckerboard="0"
     inkscape:deskcolor="#d1d1d1"
     showgrid="false" /><g
     inkscape:groupmode="layer"
     inkscape:label="Image"
     id="g8"><g
       id="g266"
       transform="matrix(1.312156,0,0,1.318554,-37.554234,-40.381393)"><path
         style="cursor:pointer;fill:#74bb1c;stroke-width:0.647732"
         d="m 107.56952,209.54292 c -8.270131,-1.02474 -19.038293,-3.63129 -20.673937,-5.00435 -0.338095,-0.28381 -1.066052,-0.5203 -1.617677,-0.52553 -1.525988,-0.0144 -12.020312,-5.47009 -17.699241,-9.20122 l -5.048987,-3.31725 2.406844,-0.82912 c 6.315052,-2.17544 8.414019,-9.63261 4.02807,-14.31078 -2.528131,-2.69658 -8.220043,-3.37352 -10.911245,-1.29769 -2.091495,1.61326 -3.868473,4.58719 -3.896603,6.5213 l -0.02937,2.01983 -3.287114,-3.56617 C 44.425737,173.07287 36.843321,160.09184 33.607694,150.52998 29.559746,138.56758 27.83637,124.83588 28.954087,113.45049 31.936347,83.072122 48.314928,57.35789 74.129174,42.526 106.93644,23.676185 147.82253,27.482016 176.72879,52.076358 c 6.49694,5.52779 6.08805,5.362461 7.84997,3.173934 0.8461,-1.050973 2.96275,-4.475927 4.70364,-7.611004 l 3.16527,-5.700138 1.78449,5.66582 c 10.58474,33.606855 15.01024,59.1019 13.3437,76.87224 -2.0549,21.91144 -8.70777,38.80096 -20.98937,53.28535 -1.8143,2.1397 -3.59235,4.2564 -3.95123,4.70378 -1.5423,1.92257 -11.41353,9.95684 -16.06961,13.07918 -6.97131,4.6749 -16.61531,9.0995 -24.37781,11.18437 -5.86619,1.57555 -7.89657,1.96268 -14.85758,2.83286 -8.62245,1.0779 -10.92024,1.07559 -19.76075,-0.0198 z m 10.35314,-27.23604 c 30.85843,-0.005 33.721,-0.16373 43.03026,-2.37814 20.72617,-4.93019 33.78882,-16.67209 40.64014,-36.53109 4.43296,-12.84925 5.25765,-34.73092 1.96717,-52.19577 -2.07144,-10.994587 -3.7748,-18.322375 -6.48095,-27.880966 -3.2492,-11.476733 -4.55144,-14.913083 -5.65148,-14.913083 -0.29647,0 -1.66933,1.964189 -3.05083,4.364853 -3.03552,5.274958 -14.94427,17.589552 -20.80496,21.514006 -8.92968,5.979516 -21.14966,11.394796 -30.56074,13.542978 -3.66567,0.836732 -13.51498,1.851106 -26.85346,2.76563 -21.785569,1.493672 -33.51327,6.271614 -44.511374,18.134232 -4.452039,4.80199 -8.602484,11.70556 -10.307912,17.14547 -2.97241,9.48132 -3.117251,19.3649 -0.39933,27.24857 2.492481,7.22974 8.081053,14.44843 12.954794,16.73354 2.34685,1.10035 2.564319,1.07745 13.91204,-1.4649 6.340346,-1.42051 13.129423,-3.00805 15.086804,-3.52788 1.9574,-0.51984 5.888358,-1.56709 8.735468,-2.32723 17.10217,-4.56608 30.56502,-10.99119 44.00086,-20.99933 7.26166,-5.4091 20.03261,-18.45476 24.78846,-25.32171 2.20342,-3.18151 4.00623,-5.58549 4.00623,-5.3422 0,0.88012 -2.9129,6.70499 -6.05065,12.09935 -10.18727,17.51387 -28.01209,34.06113 -45.48711,42.22688 -5.46508,2.55374 -9.17573,3.8517 -33.019048,11.54992 -6.82458,2.20343 -12.718491,4.38072 -13.097579,4.83843 -1.120698,1.35312 0.06487,1.82119 3.177849,1.25466 1.603752,-0.29187 16.892668,-0.53318 33.975348,-0.53622 z"
         id="path178" /></g></g></svg>
