<?xml version="1.0" encoding="UTF-8" standalone="no"?>
<!-- Created with Inkscape (http://www.inkscape.org/) -->

<svg
   width="31.999996"
   height="32"
   viewBox="0 0 31.999996 32"
   version="1.1"
   id="SVGRoot"
   xml:space="preserve"
   xmlns="http://www.w3.org/2000/svg"
   xmlns:svg="http://www.w3.org/2000/svg"><defs
     id="defs478" /><g
     id="layer1"><path
       style="fill:#000000;stroke-width:0.070263"
       d="M 20.711142,31.951787 C 20.639572,31.928419 15.9782,28.569306 10.352537,24.487088 3.271112,19.348509 0.09883365,17.007611 0.04207339,16.878754 -0.01124278,16.757715 -0.01395171,16.620978 0.0343184,16.487736 0.09025428,16.333359 2.6157273,14.297692 10.277454,8.231217 15.870347,3.8028219 20.542326,0.13919964 20.659629,0.0898312 20.838792,0.01443073 21.708034,7.0778466e-5 26.093617,7.0778466e-5 c 5.805569,0 5.587587,-0.01558561847 5.815345,0.415800121534 0.0888,0.16819504 0.09669,0.26653841 0.03356,0.41776347 -0.05726,0.13714388 -3.097478,2.58363263 -9.916226,7.97966593 -5.408507,4.2800357 -9.833651,7.8016877 -9.833651,7.8258957 0,0.02422 4.438407,3.264115 9.863124,7.199796 10.715527,7.774208 10.092565,7.282353 9.840196,7.769255 -0.211221,0.407513 -0.02886,0.395277 -5.818168,0.39042 -2.880092,-0.0024 -5.295088,-0.02351 -5.366659,-0.04687 z m 8.225861,-1.289633 c 0,-0.01556 -4.208165,-3.081204 -9.351474,-6.812552 -6.473785,-4.696575 -9.376735,-6.841616 -9.433561,-6.970622 -0.05341,-0.121246 -0.05615,-0.257935 -0.0078,-0.391245 0.0559,-0.154282 2.410488,-2.053814 9.532167,-7.689966 l 9.457921,-7.4850742 h -3.870153 -3.870154 l -9.674626,7.6565525 -9.6746279,7.6565517 0.3152908,0.246879 c 0.1734082,0.135782 4.5270452,3.300228 9.6747471,7.032103 l 9.359458,6.785226 3.771427,1.86e-4 c 2.074284,1.24e-4 3.771428,-0.01252 3.771428,-0.02807 z"
       id="path206" /></g></svg>
