<?xml version="1.0" encoding="UTF-8" standalone="no"?>
<!-- Created with Inkscape (http://www.inkscape.org/) -->

<svg
   width="32"
   height="31.999992"
   viewBox="0 0 32 31.999992"
   version="1.1"
   id="SVGRoot"
   sodipodi:docname="/tmp/ink_ext_XXXXXX.svg5UK711"
   xml:space="preserve"
   inkscape:export-filename="png.svg"
   inkscape:export-xdpi="96"
   inkscape:export-ydpi="96"
   xmlns:inkscape="http://www.inkscape.org/namespaces/inkscape"
   xmlns:sodipodi="http://sodipodi.sourceforge.net/DTD/sodipodi-0.dtd"
   xmlns="http://www.w3.org/2000/svg"
   xmlns:svg="http://www.w3.org/2000/svg"><sodipodi:namedview
     id="namedview483"
     pagecolor="#ffffff"
     bordercolor="#000000"
     borderopacity="0.25"
     inkscape:showpageshadow="2"
     inkscape:pageopacity="0.0"
     inkscape:pagecheckerboard="0"
     inkscape:deskcolor="#d1d1d1"
     inkscape:document-units="px"
     showgrid="true"
     inkscape:zoom="0.25"
     inkscape:cx="60.0"
     inkscape:cy="60.0"
     inkscape:window-width="1665"
     inkscape:window-height="1042"
     inkscape:window-x="0"
     inkscape:window-y="0"
     inkscape:window-maximized="0"
     inkscape:current-layer="layer1"><inkscape:grid
       type="xygrid"
       id="grid489" /></sodipodi:namedview><defs
     id="defs478" /><g
     inkscape:label="Calque 1"
     inkscape:groupmode="layer"
     id="layer1"><path
       style="fill:#7eda28;stroke-width:0.0645945"
       d="M 1.0664083,31.91936 C 0.73883829,31.822635 0.1801901,31.280743 0.07974582,30.962287 0.01700986,30.763378 -0.00108379,27.357027 4.9463929e-5,15.957925 0.00152842,1.2568485 0.00194438,1.2100116 0.13746165,0.92955577 0.30507553,0.58269134 0.55008783,0.33463323 0.89956023,0.15798327 L 1.166517,0.02304231 9.6757487,0.00653615 c 8.0228643,-0.01556327 8.5215923,-0.01020132 8.7254803,0.0937778 0.290439,0.14812431 8.68632,8.12685205 8.732288,8.29842725 0.01987,0.074219 0.04178,1.5538306 0.0487,3.2880268 l 0.01257,3.153082 1.701844,0.03126 c 1.61234,0.02962 1.716912,0.03879 1.988245,0.174513 0.373908,0.187027 0.768069,0.572121 0.960856,0.93876 L 32,16.277766 v 4.626348 4.626347 l -0.179841,0.319314 c -0.09891,0.175626 -0.331839,0.447336 -0.517618,0.603799 -0.534056,0.4498 -0.7121,0.483547 -2.551279,0.483547 h -1.589847 l -0.0014,1.953689 c -0.0014,1.759724 -0.01359,1.978762 -0.123904,2.206186 -0.154237,0.318081 -0.65363,0.734399 -0.996304,0.830573 -0.362641,0.101783 -24.6278062,0.09379 -24.9733045,-0.0083 z m 24.0105687,-3.465322 0.01789,-1.51521 -9.32797,-0.01647 -9.3279701,-0.01647 -0.337928,-0.167066 C 5.697133,26.539154 5.3089023,26.153207 5.1133055,25.756952 4.9717279,25.470122 4.9706648,25.433895 4.9706648,20.904141 V 16.340332 L 5.1280027,16.014378 C 5.216592,15.830856 5.4286423,15.562861 5.6132762,15.401082 6.2353625,14.855995 5.2726077,14.906329 15.749025,14.871155 l 9.310098,-0.03126 0.01742,-2.543671 0.01742,-2.5436705 -3.087429,-0.022672 C 18.601955,9.7048923 18.624533,9.7072824 17.884666,9.2929747 17.653597,9.1635827 17.437466,8.9752553 17.301319,8.7846686 16.890059,8.208974 16.883574,8.148988 16.883574,4.9191434 V 1.9918645 L 9.4922053,2.0077684 2.1008549,2.0236722 2.0837501,15.933966 c -0.00941,7.650666 -0.00282,13.945543 0.01466,13.98862 0.025317,0.06242 2.3597315,0.07512 11.4962279,0.06253 l 11.464457,-0.0158 z M 9.8759672,21.706428 c 0,-1.260778 0.01761,-2.27585 0.039099,-2.255704 0.021489,0.02016 0.3143198,1.04466 0.6507048,2.276703 l 0.611607,2.240078 0.745169,0.01761 0.745168,0.01761 0.09237,-0.298956 c 0.0508,-0.164426 0.331148,-1.178249 0.622983,-2.252926 l 0.530612,-1.953969 0.03337,2.2353 0.03337,2.235301 0.817554,0.01756 0.817553,0.01755 v -3.09658 -3.096575 h -1.32516 -1.32517 l -0.407922,1.484805 c -0.224358,0.816645 -0.444071,1.632507 -0.488251,1.813031 -0.04419,0.180521 -0.09796,0.32822 -0.119503,0.32822 -0.02154,0 -0.261313,-0.815862 -0.532813,-1.813031 L 10.923069,17.809424 H 9.5652798 8.2074911 v 3.05297 c 0,1.679134 0.02001,3.071729 0.044509,3.094648 0.024447,0.02295 0.3998777,0.04169 0.8342381,0.04169 h 0.7897444 z m 8.9430348,1.135749 v -1.156589 h 0.797587 c 1.264689,0 1.758401,-0.141313 2.254258,-0.645235 0.331634,-0.337023 0.48533,-0.767342 0.48533,-1.358832 0,-0.801412 -0.318447,-1.327166 -0.992131,-1.638022 l -0.439458,-0.202775 -2.087247,-0.01965 -2.087247,-0.01966 v 3.056989 c 0,1.68135 0.02001,3.075751 0.04451,3.09867 0.02445,0.02295 0.489974,0.04169 1.034452,0.04169 h 0.989963 z m 0,-3.094648 v -0.687704 h 0.384191 c 0.796862,0 1.150808,0.212246 1.150808,0.690073 0,0.503199 -0.303736,0.685329 -1.142904,0.685329 h -0.392095 z m 8.74282,3.657313 v -0.593928 h 0.400437 0.400433 v -0.65644 -0.656435 h -0.400433 -0.400437 v -1.906807 -1.906805 h -0.785085 -0.785085 l -1.68426,1.878915 -1.684259,1.878914 v 0.68433 0.684328 h 1.668475 1.668476 v 0.593928 0.59392 h 0.80087 0.800868 z m -2.498318,-2.844581 c 0.46497,-0.515775 0.856917,-0.937771 0.87099,-0.937771 0.01404,0 0.02561,0.421996 0.02561,0.937771 v 0.937778 H 25.089109 24.218113 Z M 23.836441,7.1344852 C 23.357462,6.6616915 22.01757,5.3888322 20.858913,4.305909 L 18.752264,2.3369596 v 2.5221646 c 0,2.163066 0.01493,2.5516349 0.104844,2.7291394 0.201823,0.3984042 0.236831,0.4028425 3.189694,0.4044225 l 2.660518,0.00142 z"
       id="mp4" /></g></svg>
