<?xml version="1.0" encoding="UTF-8" standalone="no"?>
<!-- Created with Inkscape (http://www.inkscape.org/) -->

<svg
   width="32.000027"
   height="32"
   viewBox="0 0 32.000027 32"
   version="1.1"
   id="SVGRoot"
   sodipodi:docname="/tmp/ink_ext_XXXXXX.svg5UK711"
   xml:space="preserve"
   inkscape:export-filename="wav.svg"
   inkscape:export-xdpi="96"
   inkscape:export-ydpi="96"
   xmlns:inkscape="http://www.inkscape.org/namespaces/inkscape"
   xmlns:sodipodi="http://sodipodi.sourceforge.net/DTD/sodipodi-0.dtd"
   xmlns="http://www.w3.org/2000/svg"
   xmlns:svg="http://www.w3.org/2000/svg"><sodipodi:namedview
     id="namedview483"
     pagecolor="#ffffff"
     bordercolor="#000000"
     borderopacity="0.25"
     inkscape:showpageshadow="2"
     inkscape:pageopacity="0.0"
     inkscape:pagecheckerboard="0"
     inkscape:deskcolor="#d1d1d1"
     inkscape:document-units="px"
     showgrid="true"
     inkscape:zoom="0.25"
     inkscape:cx="60.0"
     inkscape:cy="60.0"
     inkscape:window-width="1665"
     inkscape:window-height="1042"
     inkscape:window-x="0"
     inkscape:window-y="0"
     inkscape:window-maximized="0"
     inkscape:current-layer="layer1"><inkscape:grid
       type="xygrid"
       id="grid489" /></sodipodi:namedview><defs
     id="defs478" /><g
     inkscape:label="Calque 1"
     inkscape:groupmode="layer"
     id="layer1"><path
       style="fill:#000000;stroke-width:0.0664454"
       d="M 3.7794123,31.90151 C 3.6434324,31.849479 3.4279963,31.717748 3.3006644,31.60878 2.8718055,31.24177 2.8611048,31.143996 2.8611048,27.592504 V 24.394213 L 2.183916,24.358462 C 1.1272242,24.302682 0.52701007,23.976917 0.14896071,23.253994 0.0016253,22.972252 2.1922416e-4,22.921996 2.1922416e-4,17.938208 c 0,-5.666774 -0.0277904442,-5.363916 0.54241931584,-5.911256 0.38827515,-0.372704 0.86558666,-0.537589 1.66505496,-0.575185 l 0.6534113,-0.03073 V 6.3157851 c 0,-5.64412359 -0.0077,-5.54035317 0.4395596,-5.92336481 C 3.7891598,-0.0259044 3.1519786,3.2569198e-4 12.825713,3.2569198e-4 c 7.963508,0 8.78549,0.009299488 8.95578,0.10139097802 0.264029,0.14277849 7.237279,7.21950303 7.295491,7.40374673 0.02629,0.083201 0.05096,0.9982418 0.05484,2.0334239 l 0.0071,1.8821477 0.653412,0.03073 c 0.799467,0.0376 1.276776,0.202482 1.66505,0.575185 0.570208,0.54734 0.542421,0.244483 0.542421,5.911256 v 5.031358 l -0.19709,0.355107 c -0.378229,0.681477 -0.953649,0.979263 -1.998879,1.034437 l -0.664915,0.0351 V 27.5925 c -3.7e-5,3.551415 -0.01073,3.649149 -0.439596,4.016407 C 28.206088,32.031275 29.185489,32.00126 15.98459,31.99856 5.4674484,31.996453 3.9968599,31.984715 3.7794113,31.90151 Z m 23.9296847,-4.509975 0.01834,-3.015688 H 16.000662 4.2738879 v 2.989646 c 0,1.644306 0.021285,3.008481 0.047301,3.031499 0.026011,0.02302 5.2948091,0.03474 11.7084341,0.02605 l 11.661136,-0.0158 z m 0.221787,-5.23651 c 0.365177,-0.0524 0.929408,-0.154182 1.253844,-0.226179 l 0.589885,-0.130903 v -2.336126 -2.336126 h -1.836617 -1.836618 v 0.781268 0.781266 h 0.777031 0.77703 v 0.902581 c 0,0.654082 -0.02431,0.916166 -0.0883,0.951922 -0.04857,0.02713 -0.426136,0.05992 -0.839047,0.07285 -0.78729,0.02464 -1.28737,-0.05847 -1.832577,-0.304567 -0.617847,-0.27889 -1.202187,-0.993578 -1.402262,-1.715061 -0.106839,-0.385271 -0.111358,-1.274885 -0.0085,-1.678747 0.282607,-1.109914 1.244951,-1.814671 2.698431,-1.97615 0.617519,-0.0686 1.7378,0.01947 2.333219,0.183436 0.243877,0.06716 0.463159,0.101928 0.48729,0.07726 0.02414,-0.02467 0.141424,-0.375499 0.260649,-0.779634 0.253385,-0.858886 0.302389,-0.782364 -0.632809,-0.988162 -0.837313,-0.184257 -2.292838,-0.228749 -3.150812,-0.09631 -2.431235,0.375283 -3.915375,1.576624 -4.362205,3.531 -0.144618,0.632543 -0.111198,1.77352 0.06886,2.350851 0.488157,1.56521 1.849593,2.626048 3.762826,2.932017 0.741176,0.11853 2.167471,0.120215 2.980707,0.0035 z m -23.0917352,-1.544883 1.425e-4,-1.578158 0.9005011,-0.008 C 6.7771161,19.014684 7.3214613,18.914536 8.0530721,18.59808 8.9193062,18.22339 9.4560712,17.62874 9.677233,16.798768 9.9335082,15.837021 9.697485,14.900809 9.0352323,14.252224 8.2291326,13.46276 6.9052224,13.19361 4.4357327,13.317153 c -0.6912169,0.03458 -1.3839095,0.08345 -1.539315,0.108602 l -0.2825563,0.04573 -0.018287,4.280285 c -0.01005,2.354156 -0.00312,4.315443 0.015442,4.358412 0.024985,0.05787 0.3182377,0.07813 1.1308547,0.07813 h 1.097124 l 1.4e-4,-1.578158 z m 0.052831,-3.145033 c -0.029143,-0.02626 -0.052979,-0.616621 -0.052979,-1.311916 0,-1.095106 0.014944,-1.269249 0.1117361,-1.302112 0.1844018,-0.06261 1.3165071,-0.04213 1.606262,0.02908 0.3501308,0.08603 0.7949783,0.444359 0.8994939,0.724562 0.045299,0.121448 0.069643,0.397569 0.054098,0.613605 -0.036718,0.510209 -0.2563628,0.812528 -0.771946,1.062511 -0.3349941,0.162426 -0.4660337,0.187535 -1.0872916,0.208353 -0.3885164,0.01301 -0.7302324,0.0021 -0.7593714,-0.02408 z m 8.4073412,1.457496 c -0.03505,-3.001116 -0.02917,-3.24797 0.07269,-3.046939 0.481309,0.949959 1.544143,2.776442 2.545883,4.375094 l 1.194506,1.906289 1.210243,0.01711 1.210242,0.0171 -0.01814,-4.423446 -0.01814,-4.423447 -1.041926,-0.0173 -1.041929,-0.0173 0.0015,1.673581 c 0.0015,1.701099 0.102324,4.136466 0.183779,4.442655 0.08329,0.313064 -0.08576,0.05812 -0.427039,-0.644029 -0.438861,-0.902941 -1.004795,-1.860124 -2.271885,-3.842536 l -1.041209,-1.62901 -1.313056,0.01697 -1.313054,0.01697 -0.01829,4.343842 c -0.01005,2.389114 -0.0032,4.379001 0.01544,4.42197 0.02486,0.0576 0.306281,0.07813 1.071095,0.07813 H 13.33744 Z M 27.726078,9.8773372 V 8.3166046 L 24.442912,8.2991832 21.159748,8.2817619 20.963936,8.1084977 20.768124,7.9352348 20.748672,4.5927988 20.729221,1.2503627 H 12.501555 4.2738899 V 6.34422 11.438079 H 15.999984 27.72608 Z"
       id="path1045" /></g></svg>
