<?xml version="1.0" encoding="UTF-8" standalone="no"?>
<!-- Created with Inkscape (http://www.inkscape.org/) -->

<svg
   width="32"
   height="31.99999"
   viewBox="0 0 32 31.99999"
   version="1.1"
   id="SVGRoot"
   sodipodi:docname="/tmp/ink_ext_XXXXXX.svg5UK711"
   xml:space="preserve"
   inkscape:export-filename="wav.svg"
   inkscape:export-xdpi="96"
   inkscape:export-ydpi="96"
   xmlns:inkscape="http://www.inkscape.org/namespaces/inkscape"
   xmlns:sodipodi="http://sodipodi.sourceforge.net/DTD/sodipodi-0.dtd"
   xmlns="http://www.w3.org/2000/svg"
   xmlns:svg="http://www.w3.org/2000/svg"><sodipodi:namedview
     id="namedview483"
     pagecolor="#ffffff"
     bordercolor="#000000"
     borderopacity="0.25"
     inkscape:showpageshadow="2"
     inkscape:pageopacity="0.0"
     inkscape:pagecheckerboard="0"
     inkscape:deskcolor="#d1d1d1"
     inkscape:document-units="px"
     showgrid="true"
     inkscape:zoom="0.25"
     inkscape:cx="60.0"
     inkscape:cy="60.0"
     inkscape:window-width="1665"
     inkscape:window-height="1042"
     inkscape:window-x="0"
     inkscape:window-y="0"
     inkscape:window-maximized="0"
     inkscape:current-layer="layer1"><inkscape:grid
       type="xygrid"
       id="grid489" /></sodipodi:namedview><defs
     id="defs478" /><g
     inkscape:label="Calque 1"
     inkscape:groupmode="layer"
     id="layer1"><path
       style="fill:#000000;stroke-width:0.064586"
       d="M 1.0743543,31.919343 C 0.7468673,31.822633 0.18836288,31.280733 0.08794373,30.962274 -0.0268564,30.598204 -0.03047409,1.4044911 0.08422368,1.0457399 0.18449262,0.73215909 0.54843535,0.33673745 0.8980238,0.16155025 L 1.1744226,0.02304098 9.6814759,0.00653579 c 8.0205871,-0.01556292 8.5194701,-0.01019975 8.7239801,0.09377731 0.29097,0.14793297 8.682922,8.1251729 8.729154,8.2977788 0.01999,0.074575 0.04196,1.5544768 0.04887,3.2886721 l 0.01255,3.153078 1.701411,0.03126 c 1.611923,0.02961 1.71647,0.03878 1.987732,0.174512 0.373813,0.187027 0.767874,0.572121 0.96061,0.938761 L 32,16.277761 v 4.626346 4.62634 l -0.177515,0.315102 c -0.09763,0.173306 -0.317127,0.435682 -0.487763,0.58306 -0.533734,0.460981 -0.593702,0.473323 -2.470655,0.508498 l -1.668051,0.03126 -0.03336,2.000575 c -0.03756,2.251905 -0.02603,2.197665 -0.560949,2.638862 -0.164199,0.135426 -0.416393,0.279312 -0.560436,0.319748 -0.362551,0.101783 -24.621502,0.0938 -24.9669109,-0.0082 z M 25.078773,28.454026 25.096643,26.938816 15.77106,26.922336 6.445478,26.905857 6.107635,26.73879 C 5.7038789,26.539125 5.315745,26.153178 5.1202005,25.756921 4.9786597,25.470096 4.9775953,25.433867 4.9775953,20.904114 V 16.340275 L 5.1348964,16.014322 C 5.2234591,15.830801 5.4354569,15.562804 5.6200427,15.401026 6.2419701,14.855938 5.2794621,14.906275 15.753195,14.871101 l 9.307718,-0.03126 0.01743,-2.54367 0.01743,-2.5436696 -3.086638,-0.022666 C 18.60542,9.7048454 18.627989,9.707239 17.888311,9.2929309 17.657303,9.1635392 17.441228,8.9752114 17.305113,8.7846251 16.89396,8.2089265 16.887481,8.1489417 16.887481,4.9190971 V 1.9918196 l -7.3894604,0.015903 -7.38946,0.015903 -0.017102,13.9102904 c -0.00941,7.650657 -0.00282,13.945535 0.014662,13.988613 0.02531,0.06242 2.359129,0.07513 11.4932844,0.06252 l 11.461522,-0.01582 z M 12.350369,21.591804 v -2.34443 h 1.034191 1.034191 V 18.497156 17.746938 H 11.316178 8.2136065 v 0.750218 0.750218 h 1.0341908 1.0341917 v 2.34443 2.344432 h 1.034189 1.034191 z m 5.268673,1.374764 c 0.347323,-0.532618 0.648528,-0.968396 0.669347,-0.968396 0.02082,0 0.322131,0.436063 0.669583,0.969026 l 0.631733,0.969022 1.14952,7e-6 1.149517,9e-6 -0.886219,-1.265993 c -0.487422,-0.696296 -0.995734,-1.41831 -1.129581,-1.604476 -0.24184,-0.336367 -0.242602,-0.339495 -0.121863,-0.500146 0.06683,-0.08891 0.529711,-0.75949 1.028638,-1.490171 l 0.907139,-1.328512 H 20.57146 19.456062 l -0.561577,0.943625 -0.561576,0.943626 -0.138905,-0.216516 c -0.0764,-0.119082 -0.334067,-0.543081 -0.572598,-0.942217 l -0.433692,-0.725697 -1.117593,-0.0014 c -0.614678,-7.07e-4 -1.117594,0.012 -1.117594,0.02836 0,0.01636 0.439169,0.656407 0.97593,1.422289 0.536761,0.765883 0.989286,1.425089 1.005612,1.464906 0.01632,0.03982 -0.454671,0.752277 -1.046658,1.583247 -0.591987,0.830975 -1.09276,1.550958 -1.112832,1.599969 -0.03071,0.07498 0.141873,0.08901 1.088237,0.08848 l 1.124732,-6.83e-4 0.631494,-0.968394 z m 8.609499,-1.374764 v -2.34443 h 1.034191 1.034191 v -0.750218 -0.750218 h -3.10257 -3.102575 v 0.750218 0.750218 h 1.034194 1.03419 v 2.34443 2.344432 h 1.034191 1.034188 z M 23.705217,7.0094454 C 23.15292,6.4678817 21.812621,5.1948559 20.726775,4.1804976 l -1.974263,-1.8442843 0.01827,2.6051535 0.01826,2.605154 0.166806,0.1681106 c 0.09174,0.092462 0.226853,0.191385 0.300249,0.2198307 0.0734,0.028446 1.330411,0.053502 2.79337,0.055681 l 2.65993,0.00397 z"
       id="path943" /></g></svg>
