<?xml version="1.0" encoding="UTF-8" standalone="no"?>
<!-- Created with Inkscape (http://www.inkscape.org/) -->

<svg
   width="32"
   height="32"
   viewBox="0 0 32 32"
   version="1.1"
   id="SVGRoot"
   sodipodi:docname="/tmp/ink_ext_XXXXXX.svg5UK711"
   xml:space="preserve"
   inkscape:export-filename="txt.svg"
   inkscape:export-xdpi="96"
   inkscape:export-ydpi="96"
   xmlns:inkscape="http://www.inkscape.org/namespaces/inkscape"
   xmlns:sodipodi="http://sodipodi.sourceforge.net/DTD/sodipodi-0.dtd"
   xmlns="http://www.w3.org/2000/svg"
   xmlns:svg="http://www.w3.org/2000/svg"><sodipodi:namedview
     id="namedview483"
     pagecolor="#ffffff"
     bordercolor="#000000"
     borderopacity="0.25"
     inkscape:showpageshadow="2"
     inkscape:pageopacity="0.0"
     inkscape:pagecheckerboard="0"
     inkscape:deskcolor="#d1d1d1"
     inkscape:document-units="px"
     showgrid="true"
     inkscape:zoom="0.25"
     inkscape:cx="60.0"
     inkscape:cy="60.0"
     inkscape:window-width="1665"
     inkscape:window-height="1042"
     inkscape:window-x="0"
     inkscape:window-y="0"
     inkscape:window-maximized="0"
     inkscape:current-layer="layer1"><inkscape:grid
       type="xygrid"
       id="grid489" /></sodipodi:namedview><defs
     id="defs478" /><g
     inkscape:label="Calque 1"
     inkscape:groupmode="layer"
     id="layer1"><path
       style="fill:#4878c0;stroke-width:0.0350889"
       d="M 5.2959792,31.980469 C 3.8223278,31.943094 3.4631096,31.881725 2.6899036,31.535243 1.5972748,31.045622 0.69173594,30.133027 0.24657272,29.072878 0.18006188,28.914486 0.11500817,28.676164 0.0948964,28.517248 0.03935862,28.078358 -0.02782736,14.398481 0.01206595,11.651847 L 0.04648582,9.2822563 0.16836159,8.9717581 C 0.47513782,8.1902099 1.4502697,6.8505899 2.4999009,5.768726 3.1627031,5.0855714 5.0917521,3.381221 6.1058946,2.5827684 7.593612,1.4114557 9.416838,0.37056441 10.495539,0.07668848 L 10.777036,0 16.484118,3.7387044e-4 c 6.962428,3.7387234e-4 6.824026,-0.00620626 7.705507,0.37232349956 1.087682,0.46707929 1.975331,1.25207993 2.473328,2.18730423 0.391439,0.7351168 0.390226,0.7120174 0.427298,8.1358214 l 0.02109,4.224405 H 25.866143 24.620942 V 9.318948 3.7177222 L 24.489127,3.4667535 C 24.209539,2.9344524 23.829131,2.5750238 23.241363,2.2878065 l -0.334426,-0.1634212 -5.900803,-0.011217 -5.900803,-0.011217 -0.02182,0.4361116 c -0.012,0.2398608 -0.03142,0.9655919 -0.04316,1.612735 -0.03449,1.9019807 -0.09128,2.2704344 -0.448215,2.9088776 C 10.343979,7.5035307 10.105352,7.7979692 9.6766279,8.189291 9.200629,8.623763 8.7583088,8.9081334 8.1783082,9.1525628 7.6335243,9.3821535 7.3870005,9.4431207 6.7969979,9.4941747 6.4370378,9.5253238 3.8017595,9.5901139 2.8197357,9.5919608 l -0.3855318,7.385e-4 0.022588,9.4048227 0.022585,9.404822 0.1709223,0.268106 c 0.3392564,0.532164 0.6694534,0.806523 1.3040727,1.083554 l 0.3433409,0.14988 9.2857802,-0.01092 9.285777,-0.01091 0.226023,-0.09881 c 0.699165,-0.305659 1.260923,-0.830378 1.428931,-1.334707 0.04931,-0.148017 0.121152,-1.073551 0.133609,-1.721232 6.2e-4,-0.03184 0.27231,-0.04086 1.230748,-0.04086 h 1.229961 l -0.02568,0.547457 c -0.02588,0.551522 -0.111476,1.314647 -0.175575,1.565349 -0.118451,0.46329 -0.468237,1.069505 -0.884609,1.533127 -0.766769,0.853777 -2.013087,1.516413 -3.049771,1.621482 -0.409776,0.04153 -16.1637948,0.06519 -17.6869218,0.02657 z M 11.605787,25.575211 C 9.473284,25.544897 8.940205,25.503057 8.60522,25.339706 8.428918,25.253736 7.7728215,24.640173 7.6697519,24.464884 7.5363606,24.238027 7.4786794,23.923802 7.442531,23.227042 c -0.044617,-0.859911 -0.04493,-3.856991 -5.017e-4,-4.77749 0.051022,-1.057049 0.1265211,-1.263531 0.633731,-1.733154 0.2907419,-0.269197 0.5566766,-0.423272 0.9404935,-0.544893 0.2044679,-0.06479 0.3677512,-0.08603 0.8378523,-0.108993 0.8026489,-0.03921 17.5777369,-0.03756 18.8917549,0.0019 1.118664,0.03356 1.52945,0.06648 1.864693,0.149445 0.185244,0.04585 0.249352,0.08895 0.605336,0.407091 0.444193,0.396965 0.577455,0.579809 0.659515,0.9049 0.165454,0.65549 0.166397,5.930618 0.0012,6.583357 -0.03023,0.119432 -0.0906,0.277754 -0.134154,0.351823 -0.102783,0.174803 -0.76479,0.794405 -0.939882,0.879676 -0.197164,0.09602 -0.653088,0.164462 -1.359779,0.20412 -0.759751,0.04263 -15.240719,0.06734 -17.836984,0.03043 z m 5.081129,-2.148952 c 0.01074,-0.03146 0.332567,-0.969081 0.715172,-2.083606 0.974409,-2.83843 1.040896,-3.037495 1.040896,-3.116509 0,-0.06866 -0.01222,-0.07019 -0.563606,-0.07019 h -0.563605 l -0.03598,0.122564 c -0.125525,0.427624 -1.105533,3.5848 -1.131294,3.644559 -0.03883,0.09007 -0.01205,0.162701 -0.761927,-2.066658 -0.311232,-0.925282 -0.574021,-1.693764 -0.583976,-1.70774 -0.0099,-0.01398 -0.29591,-0.0254 -0.635455,-0.0254 h -0.617355 l -0.168979,0.465748 c -0.09293,0.256158 -0.321801,0.906979 -0.508584,1.446266 -0.319304,0.921903 -0.650877,1.803353 -0.716824,1.905599 -0.03452,0.05353 -0.08186,-0.09636 -0.699779,-2.216097 l -0.452562,-1.552491 -0.574475,-0.009 c -0.4850043,-0.0076 -0.5744749,-0.0015 -0.5744749,0.03902 0,0.06932 1.1644439,3.600329 1.6421759,4.979673 l 0.09368,0.270487 0.571516,-0.009 0.571517,-0.009 0.368492,-1.062232 c 0.512639,-1.477757 0.924614,-2.620564 0.997844,-2.767991 l 0.06187,-0.124542 0.221545,0.588312 c 0.121847,0.323572 0.433665,1.20604 0.692926,1.961042 0.25926,0.754997 0.47827,1.391109 0.486687,1.413583 0.01131,0.03019 0.157552,0.04086 0.560169,0.04086 0.48637,0 0.546963,-0.0062 0.56439,-0.05719 z m 3.083489,-0.604653 0.250935,-0.661851 h 1.174875 1.174876 l 0.262457,0.641363 0.262457,0.64136 0.193819,0.0202 c 0.106604,0.01109 0.350623,0.02033 0.542272,0.02049 0.318629,1.89e-4 0.348452,-0.0052 0.348452,-0.06247 0,-0.03452 -0.484763,-1.155989 -1.077251,-2.492154 -0.592487,-1.336167 -1.110908,-2.507018 -1.152047,-2.60189 l -0.07479,-0.172497 -0.512133,0.009 -0.512132,0.009 -0.141726,0.343183 c -0.07795,0.188749 -0.567787,1.371194 -1.088532,2.627649 -0.737034,1.778325 -0.935761,2.290544 -0.896954,2.311893 0.02742,0.01509 0.262396,0.02765 0.522173,0.02792 l 0.472321,3.79e-4 z m 0.848051,-1.484522 c -0.122051,-0.0078 -0.216607,-0.02966 -0.216607,-0.04984 0,-0.05159 0.665288,-1.77481 0.718536,-1.861134 l 0.04464,-0.07238 0.05294,0.08766 c 0.07527,0.124627 0.281637,0.599832 0.546365,1.258072 0.153947,0.382785 0.215723,0.577984 0.189988,0.600316 -0.04044,0.03508 -0.969618,0.06103 -1.335858,0.0373 z m 6.530583,1.860265 c 0.0748,-0.157225 0.647771,-1.34336 1.273247,-2.635858 0.652882,-1.349124 1.123143,-2.362214 1.104154,-2.378691 -0.0182,-0.01578 -0.27635,-0.0246 -0.573684,-0.01959 l -0.540605,0.009 -0.815928,1.764936 c -1.08989,2.35755 -1.067593,2.311148 -1.110587,2.311229 -0.05083,9.6e-5 -0.386194,-0.713031 -1.171425,-2.490989 C 24.95298,18.9395 24.640082,18.235254 24.618883,18.192423 l -0.03854,-0.07788 -0.554173,0.02332 c -0.304795,0.01282 -0.567978,0.03484 -0.584849,0.04893 -0.03239,0.02705 0.174795,0.475531 1.450377,3.13946 0.434683,0.9078 0.840957,1.75635 0.902825,1.885665 0.12992,0.271554 0.08449,0.256534 0.804127,0.265865 l 0.414374,0.0054 z"
       id="wav" /></g></svg>
